<svg width="28" height="28" viewBox="0 0 28 28" fill="none" xmlns="http://www.w3.org/2000/svg">
<path d="M23.3765 23.2418V19.8933C23.3765 18.9558 23.2426 18.0182 22.7068 17.0806C22.1711 16.143 21.5014 15.3394 20.5638 14.8036C19.6262 14.1339 17.6171 14 16.6795 14L14.5365 16.277L15.3402 18.0182V22.0364L14.0008 23.5097L12.6614 22.0364V18.0182L13.5989 16.277L11.322 14C10.2505 14 8.24136 14.1339 7.30379 14.8036C6.36621 15.3394 5.83045 16.143 5.2947 17.0806C4.75894 18.0182 4.625 18.8218 4.625 19.8933V23.2418C4.625 23.2418 8.10742 24.7151 14.0008 24.7151C19.8941 24.7151 23.3765 23.2418 23.3765 23.2418Z" fill="#132576"/>
<path d="M14.0003 3.41895C11.4555 3.41895 9.98214 5.82985 10.384 8.50864C10.7858 11.1874 12.1252 13.0626 14.0003 13.0626C15.8755 13.0626 17.2149 11.1874 17.6167 8.50864C18.0185 5.69592 16.5452 3.41895 14.0003 3.41895Z" fill="#132576"/>
</svg>
